<svg width="1336" height="910" viewBox="0 0 1336 910" fill="none" xmlns="http://www.w3.org/2000/svg">
<path d="M4.99201 -511.14C-0.840534 -467.463 -32.8546 -69.7027 253.248 153.636C375.653 249.19 460.333 415.952 388.05 553.389V553.389C348.942 627.747 354.659 716.494 416.551 773.31C462.033 815.062 516.589 858.966 565.489 890.254C625.191 928.452 693.412 901.732 738.153 846.761L835.099 727.647C872.827 681.292 930.576 661.9 976.619 623.792V623.792C1059.05 555.563 1156.43 483.891 1257.58 518.828L1396.92 566.957C1516.86 608.386 1617.53 538.082 1552.78 428.946C1523.17 379.035 1506.03 351.516 1561.96 378.991" stroke="#FF9900" stroke-width="2"/>
</svg>
