<svg width="43" height="36" viewBox="0 0 43 36" fill="none" xmlns="http://www.w3.org/2000/svg">
<rect x="1" y="1" width="41" height="34" rx="2" stroke="white" stroke-width="1.5"/>
<path d="M14.032 26.12C12.384 26.12 10.896 25.752 9.568 25.016C8.256 24.28 7.216 23.264 6.448 21.968C5.696 20.672 5.32 19.216 5.32 17.6C5.32 15.984 5.696 14.528 6.448 13.232C7.216 11.936 8.256 10.92 9.568 10.184C10.896 9.448 12.384 9.08 14.032 9.08C15.248 9.08 16.368 9.28 17.392 9.68C18.416 10.064 19.288 10.64 20.008 11.408L19.24 12.2C17.896 10.872 16.176 10.208 14.08 10.208C12.672 10.208 11.392 10.528 10.24 11.168C9.088 11.808 8.184 12.696 7.528 13.832C6.872 14.952 6.544 16.208 6.544 17.6C6.544 18.992 6.872 20.256 7.528 21.392C8.184 22.512 9.088 23.392 10.24 24.032C11.392 24.672 12.672 24.992 14.08 24.992C16.16 24.992 17.88 24.32 19.24 22.976L20.008 23.768C19.288 24.536 18.408 25.12 17.368 25.52C16.344 25.92 15.232 26.12 14.032 26.12ZM37.3128 9.2L29.8248 26H28.6008L21.1128 9.2H22.4568L29.2488 24.416L36.0408 9.2H37.3128Z" fill="white"/>
</svg>
