<svg width="41" height="40" viewBox="0 0 41 40" fill="none" xmlns="http://www.w3.org/2000/svg">
<path fill-rule="evenodd" clip-rule="evenodd" d="M20.5161 1C9.7564 1 1 9.7013 1 20.4651C1 29.0698 6.58988 36.3531 14.3446 38.9312C15.314 39.1246 15.6694 38.5123 15.6694 37.9966C15.6694 37.5455 15.6371 35.9986 15.6371 34.3872C10.2088 35.5796 9.07786 32.0991 9.07786 32.0991C8.20545 29.8432 6.91299 29.2631 6.91299 29.2631C5.13586 28.0707 7.04224 28.0707 7.04224 28.0707C9.01324 28.1996 10.0472 30.0688 10.0472 30.0688C11.792 33.0337 14.6031 32.1958 15.734 31.6801C15.8956 30.4233 16.4126 29.5532 16.9619 29.0698C12.6321 28.5863 8.07621 26.9105 8.07621 19.4661C8.07621 17.3391 8.85168 15.5988 10.0795 14.2453C9.88565 13.7619 9.20711 11.7638 10.2734 9.08899C10.2734 9.08899 11.9213 8.57335 15.6371 11.0871C17.188 10.6681 18.8682 10.4425 20.5161 10.4425C22.164 10.4425 23.8442 10.6681 25.3951 11.0871C29.111 8.57335 30.7588 9.08899 30.7588 9.08899C31.8251 11.7638 31.1466 13.7619 30.9527 14.2453C32.2129 15.5988 32.956 17.3391 32.956 19.4661C32.956 26.9428 28.4001 28.5863 24.0381 29.0698C24.7489 29.6821 25.3628 30.8422 25.3628 32.6792C25.3628 35.2896 25.3305 37.3843 25.3305 38.0289C25.3305 38.5445 25.6859 39.1568 26.6553 38.9635C34.41 36.3853 39.9999 29.102 39.9999 20.4974C40.0322 9.7013 31.2758 1 20.5161 1Z" stroke="white" stroke-width="1.5" stroke-miterlimit="10"/>
</svg>
